<svg xmlns="http://www.w3.org/2000/svg" width="69" height="28" viewBox="0 0 69 28">
    <g fill="none" fill-rule="evenodd">
        <path fill="#F2B02D" d="M28.698 12.542c-1.495-.443-2.815-.905-3.532-1.469-.232-.193-.457-.43-.468-.794-.003-.284.181-.535.395-.684.218-.158.48-.266.811-.366 1.259-.372 2.602-.573 3.77-.838 1.17-.259 2.136-.593 2.66-1.103.348-.34.557-.748.571-1.399v-.021c0-.443-.278-.866-.957-1.314-.672-.44-1.708-.846-2.99-1.192-2.568-.694-6.115-1.159-9.846-1.46-7.454-.606-15.648-.58-18.572-.608H.524a.556.556 0 01-.178-.03l-.01-.002-.002-.002-.01-.002-.002-.002c-.003 0-.006-.001-.008-.003a.01.01 0 00-.005-.001.04.04 0 00-.006-.003l-.005-.003a.078.078 0 01-.013-.006H.282a.475.475 0 01-.28-.382C-.021.595.195.367.487.347 3.555.128 7.19.014 11.04.014c9.99.002 21.409.767 28.179 2.545 2.262.6 4.013 1.294 5.076 2.203.604.517.99 1.147.99 1.848 0 .025 0 .052-.003.083-.033.916-.612 1.63-1.367 2.107-.756.485-1.702.789-2.66.999-.994.217-2.007.327-2.825.384 7.674 3.945 18.946 4.724 25.335 4.716 1.807 0 3.228-.06 4.056-.123.288-.022.542.17.57.427.03.258-.182.489-.468.517-4.41.436-8.472.618-12.188.618-13.504.002-22.452-2.413-27.036-3.796"/>
        <path fill="#FFFFFE" d="M5.153 27.034c.202-.165.303-.408.303-.729 0-.32-.105-.575-.315-.762-.21-.188-.497-.281-.862-.281H.55v2.02h3.715c.39 0 .686-.082.889-.248zm-.519-2.317a.963.963 0 00.563-.533c.054-.125.081-.262.081-.41a.89.89 0 00-.259-.663c-.172-.17-.407-.255-.703-.255H.55v1.94h3.656c.153 0 .296-.027.43-.079zm1.055.785c.18.215.27.492.27.833 0 .217-.038.412-.114.585-.077.172-.188.32-.333.444a1.53 1.53 0 01-.533.285c-.21.066-.446.1-.707.1H.067v-5.36h4.168c.498 0 .883.124 1.154.37.272.247.408.58.408 1 0 .311-.076.566-.226.766-.15.2-.386.359-.707.478.37.118.645.285.825.5zM8.624 27.749L8.624 22.39 13.621 22.39 13.621 22.856 9.105 22.856 9.105 24.677 12.244 24.677 12.244 25.143 9.105 25.143 9.105 27.282 13.828 27.282 13.828 27.749 8.624 27.749M18.535 22.856L18.535 27.749 18.054 27.749 18.054 22.856 15.493 22.856 15.493 22.39 21.097 22.39 21.097 22.856 18.535 22.856M27.999 24.638a.664.664 0 00.226-.531.625.625 0 00-.23-.505c-.153-.127-.37-.19-.651-.19h-2.939v1.42h2.946c.281 0 .497-.064.648-.194zm.189 3.11l-1.318-1.894h-2.465v1.895h-1.303v-5.36h4.39c.306 0 .583.043.833.127.249.083.46.203.636.359.175.155.311.34.407.555.097.215.145.453.145.714 0 .854-.407 1.392-1.222 1.614l1.362 1.99h-1.465zM32.007 27.749L33.31 27.749 33.31 22.39 32.007 22.39zM39.601 27.749L38.387 27.749 35.22 22.39 36.678 22.39 38.994 26.313 41.311 22.39 42.77 22.39 39.601 27.749M44.561 27.749L44.561 22.39 50.372 22.39 50.372 23.411 45.864 23.411 45.864 24.521 48.995 24.521 48.995 25.543 45.864 25.543 45.864 26.727 50.579 26.727 50.579 27.749 44.561 27.749M57.851 24.638a.664.664 0 00.226-.531.624.624 0 00-.23-.505c-.153-.127-.37-.19-.65-.19h-2.94v1.42h2.946c.282 0 .498-.064.648-.194zm.189 3.11l-1.318-1.894h-2.465v1.895h-1.302v-5.36h4.39c.305 0 .583.043.832.127.249.083.461.203.636.359.176.155.311.34.408.555.096.215.144.453.144.714 0 .854-.407 1.392-1.221 1.614l1.362 1.99H58.04zM65.879 23.444a4.955 4.955 0 00-1.207-.144c-.562 0-.986.05-1.27.152-.283.101-.425.238-.425.41 0 .183.156.312.466.386a3.3 3.3 0 00.415.066c.148.015.307.026.477.033l.54.023c.19.007.39.02.597.04.42.04.784.097 1.095.17.31.075.57.175.777.3.208.126.362.283.463.47.101.188.152.413.152.674 0 .582-.266 1.036-.796 1.362-.53.326-1.309.488-2.335.488a6.92 6.92 0 01-1.858-.236 5.365 5.365 0 01-1.621-.77l.71-.874c.464.282.926.49 1.384.626.46.136.94.204 1.444.204.543 0 .96-.07 1.25-.208.292-.138.438-.318.438-.54a.325.325 0 00-.126-.274.925.925 0 00-.363-.148 3.463 3.463 0 00-.577-.067c-.227-.01-.484-.022-.77-.037a10.64 10.64 0 01-1.37-.13 3.649 3.649 0 01-.973-.288 1.433 1.433 0 01-.58-.474 1.193 1.193 0 01-.193-.684c0-.528.254-.946.762-1.255.508-.308 1.25-.463 2.228-.463 1.308 0 2.359.262 3.153.785l-.74.859a4.856 4.856 0 00-1.147-.456"/>
    </g>
</svg>
