<!-- Generator: Adobe Illustrator 23.0.4, SVG Export Plug-In  -->
<svg version="1.1" xmlns="http://www.w3.org/2000/svg" xmlns:xlink="http://www.w3.org/1999/xlink" x="0px" y="0px"
	 width="258.027px" height="134.014px" viewBox="0 0 258.027 134.014" style="enable-background:new 0 0 258.027 134.014;"
	 xml:space="preserve">
<style type="text/css">
	.st0{fill:#61B510;}
	.st1{fill:#F7760D;}
</style>
<defs>
</defs>
<g>
	<path d="M43.425,19.471c0,0,0.136,0.333,0.344,0.908c-0.057-0.325-0.12-0.648-0.194-0.971
		C43.526,19.427,43.477,19.449,43.425,19.471"/>
	<path d="M43.425,19.471c0,0,0.136,0.333,0.344,0.908c-0.057-0.325-0.12-0.648-0.194-0.971
		C43.526,19.427,43.477,19.449,43.425,19.471"/>
	<path d="M43.425,19.471c0,0,0.136,0.333,0.344,0.908c-0.057-0.325-0.12-0.648-0.194-0.971
		C43.526,19.427,43.477,19.449,43.425,19.471"/>
	<path class="st0" d="M216.38,51.293h-37.525c0.793,0.285,1.513,0.742,2.109,1.337c0.591,0.593,1.087,1.273,1.472,2.016
		c0.391,0.754,0.688,1.553,0.883,2.379c0.145,0.605,0.238,1.222,0.277,1.844v21.199c-0.153,1.499-0.634,2.947-1.409,4.239
		c-0.405,0.676-0.891,1.3-1.449,1.857c-0.553,0.555-1.187,1.022-1.882,1.384h22.253c-0.874-0.208-1.684-0.628-2.358-1.222
		c-0.625-0.562-1.146-1.23-1.54-1.972c-0.401-0.761-0.684-1.58-0.837-2.426c-0.166-0.866-0.251-1.746-0.252-2.628v-8.156
		c1.27,0,2.463,0.037,3.581,0.112c1.038,0.058,2.057,0.296,3.014,0.703c0.908,0.405,1.701,1.028,2.311,1.813
		c0.741,1.024,1.245,2.201,1.475,3.444V60.63c-0.471,1.158-1.096,2.248-1.859,3.238c-0.579,0.728-1.315,1.317-2.153,1.723
		c-0.864,0.393-1.793,0.624-2.741,0.681c-1.029,0.073-2.238,0.111-3.627,0.112v-9.969l6.799,0.043c1.056,0,2.151,0.045,3.285,0.135
		c1.117,0.089,2.224,0.272,3.309,0.547c1.07,0.271,2.104,0.665,3.082,1.176c0.976,0.511,1.845,1.203,2.56,2.04
		c0.265,0.306,0.508,0.632,0.725,0.974c0.224,0.342,0.392,0.717,0.497,1.111L216.38,51.293z"/>
	<path class="st0" d="M219.961,51.293v13.732c0.195-1.435,0.774-2.79,1.676-3.922c0.865-1.064,1.937-1.942,3.151-2.581
		c1.248-0.659,2.595-1.11,3.988-1.337c1.399-0.24,2.822-0.3,4.236-0.18V80.53c-0.058,0.598-0.18,1.189-0.364,1.761
		c-0.263,0.83-0.662,1.611-1.179,2.311c-0.513,0.696-1.132,1.308-1.833,1.814c-0.72,0.517-1.527,0.901-2.382,1.132h23.795
		c-0.95-0.161-1.85-0.541-2.629-1.11c-0.751-0.552-1.396-1.235-1.903-2.016c-0.516-0.789-0.906-1.653-1.157-2.562
		c-0.255-0.907-0.385-1.845-0.386-2.787V57.004h1.179c0.988,0.022,1.973,0.12,2.946,0.292c1.249,0.211,2.467,0.576,3.626,1.088
		c1.251,0.563,2.376,1.372,3.307,2.38c1.046,1.156,1.738,2.587,1.994,4.125V51.293H219.961z"/>
	<path class="st0" d="M156.469,85.69c-0.574,0.523-1.223,0.959-1.925,1.292c-0.635,0.287-1.043,0.475-1.226,0.566h25.608
		c-0.421-0.09-0.827-0.242-1.203-0.452c-0.367-0.207-0.722-0.434-1.064-0.681c-0.908-0.641-1.73-1.394-2.447-2.243
		c-0.674-0.816-1.266-1.696-1.767-2.628c-0.533-0.994-0.994-2.024-1.381-3.082l-1.86-5.525l-2.513-7.459l-4.849-14.187h-21.256
		c0.672,0.167,1.32,0.419,1.928,0.75c0.543,0.321,1.038,0.717,1.471,1.176c0.508,0.542,0.867,1.206,1.042,1.928
		c0.15,0.656,0.15,1.337,0,1.993c-0.141,0.664-0.338,1.316-0.588,1.947c-0.605,1.573-1.066,2.819-1.384,3.739
		c-0.095,0.279-0.197,0.539-0.306,0.796l-3.841,9.923c-0.21,0.574-0.527,1.42-0.952,2.538c-0.423,1.118-0.899,2.282-1.427,3.49
		c-0.529,1.209-1.088,2.342-1.677,3.399c-0.426,0.839-0.985,1.604-1.654,2.265c-0.509,0.419-1.038,0.813-1.586,1.179
		c-0.541,0.361-0.974,0.634-1.291,0.814c-0.18,0.096-0.353,0.202-0.52,0.318h19.124c-1.356-0.284-2.569-1.039-3.422-2.131
		c-0.82-1.118-1.271-2.464-1.291-3.851c0.02-0.43,0.088-0.856,0.205-1.27c0.134-0.544,0.301-1.094,0.498-1.654
		c0.194-0.559,0.398-1.095,0.612-1.608c0.208-0.514,0.362-0.909,0.452-1.179h10.741c0.09,0.244,0.211,0.583,0.364,1.02
		c0.15,0.438,0.309,0.884,0.475,1.337c0.165,0.453,0.318,0.891,0.454,1.315c0.134,0.421,0.233,0.738,0.293,0.949
		c0.289,1.022,0.208,2.113-0.227,3.082C157.684,84.367,157.138,85.091,156.469,85.69 M147.157,71.55l3.807-11.782l3.988,11.782
		H147.157z"/>
	<path class="st0" d="M118.314,69.468c0.923-0.424,1.775-0.987,2.526-1.672l0.235-0.235c0.35-0.345,0.675-0.714,0.974-1.105
		c0.038-0.052,0.082-0.102,0.121-0.156c1.51-1.826,2.237-4.175,2.021-6.535h-0.003c-0.061-1.031-0.326-2.039-0.779-2.967
		c-0.276-0.564-0.602-1.102-0.974-1.608c-0.605-0.847-1.395-1.545-2.311-2.04c-0.944-0.517-1.949-0.913-2.992-1.179
		c-1.062-0.272-2.146-0.453-3.239-0.542c-1.105-0.093-2.125-0.138-3.06-0.136H85.908c0.843,0.212,1.636,0.59,2.333,1.11
		c0.679,0.581,1.227,1.299,1.608,2.107c0.537,1.179,0.801,2.465,0.771,3.76c0.03,0.788,0.046,1.589,0.047,2.404v18.579
		c-0.005,0.817-0.104,1.632-0.296,2.426c-0.194,0.824-0.483,1.622-0.861,2.379c-0.374,0.751-0.863,1.438-1.45,2.038
		c-0.591,0.608-1.291,1.1-2.062,1.452h21.527c-0.472-0.172-0.934-0.369-1.384-0.591c-0.531-0.264-1.014-0.616-1.427-1.041
		c-0.504-0.529-0.91-1.143-1.201-1.814c-0.393-0.937-0.63-1.932-0.701-2.946c-0.154-1.657-0.215-3.322-0.183-4.986
		c0.03-1.69,0.046-3.351,0.047-4.983h1.45c0.667,0,1.313-0.003,1.939-0.008c5.677,13.259,7.652,16.369,13.303,16.369h12.433
		C127.547,87.549,122.107,77.583,118.314,69.468 M101.906,66.248v-9.608c1.118,0,2.227-0.022,3.331-0.069
		c1-0.056,2.002,0.051,2.968,0.317c0.849,0.239,1.597,0.748,2.131,1.45c0.617,0.98,0.902,2.133,0.814,3.287
		c0.085,1.086-0.229,2.165-0.883,3.036c-0.591,0.667-1.375,1.134-2.242,1.337c-0.979,0.233-1.984,0.333-2.99,0.296
		C103.946,66.262,102.904,66.248,101.906,66.248"/>
	<path class="st1" d="M92.972,9.176c-3.252,1.485-5.411,4.652-5.604,8.222l-0.008,0.003c-2.645-1.871-6.057-2.279-9.069-1.086
		c0.121,0.401,0.268,0.794,0.44,1.176c1.138,2.504,3.297,4.398,5.927,5.199c-1.444,2.239-3.346,4.146-5.582,5.594
		c-0.973,0.625-2.088,0.994-3.242,1.072c-2.973,0.352-5.86-1.144-7.286-3.777c-1.816,3.249-5.786,4.612-9.215,3.161
		c-0.441-0.256-0.875-0.528-1.291-0.82c-3.552-2.47-6.139-6.093-7.324-10.254c0.054-0.003,0.106-0.008,0.161-0.014
		c2.985-0.332,5.642-2.045,7.177-4.627c0.165-0.274,0.316-0.557,0.452-0.847c-2.424-1.797-5.552-2.347-8.443-1.486
		c-0.293,0.088-0.585,0.191-0.873,0.307c0.099-3.367-2.428-8.432-5.527-10.275c-0.395-0.226-0.802-0.429-1.22-0.61L42.172,0
		l-0.189,0.241c-0.244,0.316-0.468,0.647-0.67,0.99c-1.827,3.11-1.324,8.692,0.386,11.596c-0.306,0.036-0.613,0.088-0.913,0.153
		c-2.619,0.567-4.881,2.204-6.236,4.516c-0.163,0.277-0.311,0.562-0.443,0.854c0.259,0.189,0.527,0.364,0.804,0.525
		c2.587,1.524,5.74,1.745,8.514,0.596c0.052-0.022,0.102-0.041,0.15-0.063c0.89,3.873,0.523,7.928-1.047,11.578
		c-0.005-0.016-0.008-0.036-0.014-0.052c-0.025,0.092-0.058,0.186-0.085,0.282c-0.106,0.234-0.216,0.47-0.331,0.703
		c-0.277,0.563-0.582,1.111-0.916,1.641c-2.327,2.925-6.487,3.62-9.639,1.61c-0.01,2.994-1.847,5.679-4.633,6.775
		c-0.649,0.256-1.331,0.416-2.026,0.476c-3.016-0.051-5.975-0.826-8.629-2.259c1.921-1.969,2.9-4.67,2.688-7.412
		c-0.033-0.424-0.095-1.204-0.178-1.606c-3.312,0.416-6.047,3.369-7.426,4.955h-0.008c-1.829-1.586-5.191-4.417-8.872-4.137
		C1.61,32.098,0.783,32.345,0,32.698c4.11,3.085,8.024,6.423,11.719,9.993c2.596,2.487,5.087,5.14,7.467,7.855
		c3.307,3.782,8.955,11.421,8.96,11.419c0.694,0.974,3.523,2.229,5.434,2.041c0.254-0.038,0.447-0.25,0.46-0.507
		c0.024-0.2-0.321-0.32-0.498-0.399c-1.363-0.49-2.39-1.629-2.735-3.036c-1.063-3.331,8.902-9.346,23.469-13.043
		c14.57-3.695,26.27-3.246,26.946,0.191c0.374,1.4,0.023,2.894-0.936,3.98c-0.117,0.156-0.364,0.43-0.24,0.594
		c0.134,0.22,0.405,0.315,0.648,0.227c1.764-0.756,3.643-3.211,3.783-4.396c0,0,1.564-9.468,2.639-14.375
		c0.774-3.528,1.7-7.009,2.779-10.442c1.532-4.884,3.369-9.668,5.498-14.323C94.558,8.602,93.744,8.837,92.972,9.176"/>
	<path class="st0" d="M41.507,54.399c7.867-3.362,16.153-5.643,24.632-6.783c0,0,16.539,1.628,16.539,21.041
		S68.868,99.153,50.07,99.153c-18.795,0-28.707-8.285-28.707-17.11c0-8.826,6.345-10.232,9.296-10.232
		c2.949,0,8.284,2.665,8.284,9.581c0,0-5.311-1.304-5.311,3.29s6.279,7.456,14.889,7.456c8.607,0,20.764-3.772,20.764-20.578
		c0-17.931-8.298-18.733-14.067-18.733v30.758c0.099,1.574,1.442,2.778,3.017,2.705c0,0-3.034,2.56-10.541,2.56
		s-9.646-2.41-9.646-2.41s3.553,0.014,3.553-3.121C41.603,80.187,41.507,54.399,41.507,54.399"/>
	<path d="M249.684,118.679c-0.233-0.689-0.531-1.354-0.891-1.986c-0.616-1.085-1.467-2.017-2.492-2.727l-0.005-0.005
		c-0.126-0.09-0.248-0.18-0.372-0.265l-0.025-0.016c-0.557-0.39-1.137-0.745-1.737-1.064c-4.267-2.273-8.65-2.284-12.168-3.11
		c-0.557-0.129-1.105-0.291-1.643-0.484c-0.197-0.077-0.391-0.157-0.585-0.244c-0.745-0.332-1.439-0.768-2.063-1.293
		c-0.551-0.476-0.946-1.107-1.132-1.811c-0.195-0.573-0.129-1.203,0.18-1.723c0.463-0.705,1.075-1.3,1.792-1.745
		c0.764-0.478,1.597-0.837,2.47-1.064c0.939-0.245,1.907-0.36,2.877-0.342c1.005,0.014,2.003,0.16,2.971,0.432
		c1.107,0.276,2.19,0.639,3.238,1.088c0.753,0.333,1.462,0.759,2.109,1.267c0.316,0.256,0.618,0.53,0.905,0.818
		c0.303,0.3,0.618,0.617,0.952,0.952c0.331,0.331,0.703,0.7,1.11,1.11c0.408,0.408,0.914,0.898,1.518,1.471V94.66
		c0,0-1.017,2.538-5.052,2.538c-1.13-0.03-2.257-0.121-3.377-0.271c-1.149-0.183-2.311-0.369-3.49-0.569
		c-1.303-0.204-2.623-0.286-3.941-0.246c-1.815-0.004-3.622,0.24-5.371,0.725c-1.667,0.449-3.24,1.193-4.644,2.197
		c-2.925,2.065-4.612,5.464-4.488,9.043c-0.076,1.594,0.293,3.179,1.066,4.575c0.562,0.931,1.257,1.775,2.063,2.505l0.011,0.008
		c0.024,0.025,0.054,0.047,0.079,0.071c0.091,0.076,0.18,0.153,0.271,0.227c0.142,0.12,0.287,0.234,0.432,0.35
		c2.937,2.253,7.083,3.345,11.877,4.442c0.093,0.022,0.178,0.038,0.268,0.058l0.036,0.008c0.492,0.109,0.985,0.235,1.479,0.377
		c0.911,0.252,1.792,0.601,2.629,1.041c0.678,0.345,1.28,0.822,1.77,1.403c0.412,0.482,0.549,1.142,0.361,1.748
		c-0.221,1.039-0.882,1.93-1.811,2.445c-0.947,0.495-1.992,0.773-3.06,0.815c-1.163,0.059-2.328-0.032-3.468-0.27
		c-1.03-0.203-2.044-0.476-3.036-0.818c-1.959-0.721-3.829-1.664-5.574-2.809c-1.159-0.793-2.257-1.671-3.285-2.628
		c-1.095-1.028-2.061-2.184-2.88-3.443v15.833c0,0,1.608-1.19,5.607-1.687c0.005,0.006,0.01,0.012,0.016,0.016
		c0.635-0.108,1.278-0.168,1.923-0.18c0.987-0.016,1.973,0.06,2.946,0.226c0.986,0.165,1.962,0.384,2.924,0.657
		c1.035,0.267,2.088,0.464,3.15,0.588c1.061,0.122,2.127,0.183,3.195,0.183c1.807-0.003,3.608-0.209,5.369-0.613
		c1.728-0.377,3.371-1.069,4.849-2.04c1.44-0.954,2.642-2.224,3.515-3.714c0.953-1.723,1.408-3.676,1.315-5.642
		C250.244,120.744,250.016,119.696,249.684,118.679"/>
	<path d="M165.934,104.449c0-0.574,0.03-1.195,0.091-1.859c0.06-0.659,0.182-1.311,0.364-1.947c0.173-0.618,0.424-1.212,0.747-1.767
		c0.321-0.544,0.745-1.022,1.247-1.406c0.529-0.407,1.153-0.672,1.814-0.768h-16.631c0.917,0.047,1.796,0.38,2.513,0.952
		c0.656,0.55,1.182,1.238,1.54,2.016c0.387,0.825,0.647,1.704,0.771,2.606c0.132,0.87,0.2,1.749,0.205,2.629v16.224l-15.59-24.426
		h-18.853c0.912,0.015,1.791,0.343,2.491,0.927c0.638,0.565,1.134,1.272,1.45,2.063c0.341,0.843,0.569,1.726,0.681,2.628
		c0.115,0.857,0.175,1.72,0.18,2.585c0,0.361,0.006,0.9,0.022,1.608v17.179c-0.008,0.76-0.027,1.523-0.068,2.286
		c-0.03,0.574-0.075,1.163-0.135,1.767c-0.057,0.593-0.179,1.178-0.364,1.745c-0.179,0.556-0.438,1.083-0.768,1.564
		c-0.348,0.495-0.796,0.912-1.315,1.223c-0.13,0.08-0.266,0.148-0.408,0.205c-0.18,0.073-0.372,0.142-0.566,0.202
		c-0.197,0.06-0.372,0.12-0.522,0.18c-0.086,0.041-0.177,0.071-0.271,0.09h16.268c-0.451-0.24-0.835-0.459-1.154-0.656
		c-0.33-0.207-0.648-0.434-0.952-0.679c-0.286-0.226-0.551-0.477-0.793-0.749c-0.703-0.864-1.172-1.895-1.359-2.992
		c-0.206-1.09-0.312-2.197-0.317-3.306v-15.965l15.341,24.347h18.603c-0.66-0.097-1.284-0.362-1.814-0.768
		c-0.502-0.384-0.926-0.861-1.247-1.406c-0.322-0.555-0.573-1.148-0.747-1.766c-0.182-0.637-0.304-1.29-0.364-1.95
		c-0.061-0.665-0.091-1.284-0.091-1.858L165.934,104.449L165.934,104.449z"/>
	<path d="M116.237,118.539v-14.375c0.027-0.649,0.097-1.295,0.211-1.934c0.14-0.812,0.399-1.599,0.768-2.336
		c0.37-0.718,0.879-1.357,1.496-1.879c0.711-0.586,1.527-1.033,2.404-1.316H99.451c0.888,0.242,1.71,0.684,2.402,1.292
		c0.707,0.709,1.269,1.549,1.655,2.472c0.557,1.411,0.813,2.923,0.749,4.439v19.028c0,0.605-0.016,1.332-0.047,2.183
		c0.021,1.201-0.244,2.389-0.771,3.468c-0.402,0.789-0.947,1.495-1.608,2.084c-0.109,0.093-0.235,0.18-0.358,0.271
		c-5.312-2.164-10.844-7.499-14.941-13.899c-2.413-3.766-5.137-8.758-7.407-13.115c2.133-2.669,4.174-5.152,5.82-7.046
		c3.226-3.118,7.271-5.257,11.665-6.167H78.925c0,0,1.622,2.325-0.714,5.151l-11.72,14.17V99.397
		c-0.125,0.054-0.252,0.112-0.377,0.164c-0.506,0.205-1.029,0.402-1.559,0.585c-1.618,0.561-3.273,1.01-4.953,1.346
		c-0.574,0.117-1.173,0.227-1.775,0.322c-1.26,0.23-2.532,0.39-3.81,0.479v21.226l-0.076,1.63c-0.038,0.435-0.091,0.873-0.156,1.326
		c-0.146,1-0.426,1.976-0.832,2.902c-0.385,0.884-0.95,1.678-1.658,2.333c-0.775,0.688-1.743,1.123-2.773,1.245H71.21
		c-0.93-0.186-1.77-0.679-2.385-1.401c-0.649-0.77-1.142-1.659-1.452-2.618c-0.363-1.094-0.608-2.223-0.728-3.369
		c-0.136-1.226-0.214-2.426-0.232-3.603c-0.003-0.221-0.005-0.434-0.005-0.65c0.902-1.19,2.3-3.031,3.968-5.203
		c0.895,1.508,1.849,3.075,2.834,4.634c4.69,7.422,8.432,12.223,14.378,12.223c5.948,0,33.435-0.014,33.435-0.014
		c-0.887-0.354-1.701-0.869-2.401-1.518c-0.695-0.725-1.255-1.569-1.652-2.492c-0.471-1.11-0.72-2.301-0.733-3.506L116.237,118.539
		L116.237,118.539z"/>
	<path d="M195.396,114.963c0.574,0.559,0.983,1.265,1.182,2.041c0.212,0.851,0.3,1.727,0.26,2.603c-0.03,0.952-0.03,1.911,0,2.877
		c0,0.485,0.016,1.051,0.046,1.702c0.035,0.63-0.052,1.26-0.256,1.857c-0.224,0.612-0.638,1.137-1.182,1.496
		c-0.81,0.465-1.741,0.678-2.673,0.613c-1.187,0.056-2.361-0.262-3.358-0.908c-0.849-0.6-1.545-1.391-2.033-2.308
		c-0.491-0.931-0.844-1.929-1.047-2.962v0.022c-1.095-4.671-1.132-9.527-0.11-14.214c0.222-1.036,0.605-2.031,1.135-2.949
		c0.513-0.882,1.215-1.64,2.055-2.22c0.943-0.618,2.042-0.955,3.169-0.974c0.57-0.026,1.141,0.012,1.702,0.115
		c0.599,0.104,1.165,0.219,1.701,0.339c2.692,0.579,5.261,1.63,7.587,3.104c2.617,1.716,4.737,3.452,5.651,5.96V94.719
		c-0.503,1.533-1.635,2.779-3.113,3.428c-0.449,0.152-0.91,0.268-1.379,0.344c-0.107,0.014-0.219,0.025-0.333,0.033
		c-0.069,0.005-0.143,0.005-0.213,0.008c-0.894-0.006-1.787-0.08-2.67-0.222c-0.964-0.141-1.913-0.369-2.836-0.681
		c-0.946-0.317-1.844-0.581-2.694-0.793c-0.854-0.212-1.723-0.364-2.599-0.453c-0.896-0.091-1.796-0.135-2.697-0.134
		c-1.83-0.008-3.654,0.197-5.437,0.609c-1.7,0.396-3.338,1.022-4.868,1.86c-1.507,0.827-2.878,1.881-4.064,3.126
		c-0.954,1.007-1.773,2.134-2.436,3.352l-0.022,0.038c-2.064,4.856-2.644,10.214-1.666,15.398c0.25,1.043,0.584,2.063,0.998,3.052
		c0.211,0.501,0.441,0.985,0.692,1.453c0.942,1.796,2.227,3.389,3.782,4.691c1.577,1.296,3.392,2.273,5.342,2.877
		c2.211,0.674,4.52,0.972,6.83,0.883c1.045-0.036,2.084-0.187,3.096-0.451c1.055-0.274,2.119-0.577,3.191-0.909
		c1.073-0.333,2.15-0.648,3.239-0.952c1.04-0.295,2.111-0.47,3.191-0.522c1.037-0.045,2.074,0.078,3.071,0.364
		c1.075,0.324,2.061,0.889,2.883,1.654v-10.967c0.004-0.804,0.068-1.607,0.191-2.402c0.118-0.818,0.339-1.618,0.659-2.38
		c0.313-0.735,0.763-1.404,1.326-1.971c0.594-0.592,1.325-1.028,2.128-1.27h-20.234C193.619,113.883,194.6,114.294,195.396,114.963"
		/>
</g>
</svg>