<svg viewBox="0 0 350 84" fill="none" width="180" class="_cb _an _ao"><title>FanDuel</title><g fill-rule="evenodd" clip-rule="evenodd"><path d="M103.144 44.39h6.296a.496.496 0 0 0 .496-.495V29.24h11.271a.496.496 0 0 0 .466-.327l1.995-5.51a.495.495 0 0 0-.465-.664h-13.267v-9.174h16.953c.207 0 .393-.13.464-.325l2.016-5.511a.495.495 0 0 0-.465-.664h-25.76a.495.495 0 0 0-.495.494v36.336c0 .273.222.495.495.495zm38.77-12.739l4.72-13.578 4.56 13.578h-9.28zm1.56-24.261l-13.218 36.336a.496.496 0 0 0 .466.664h6.54c.212 0 .4-.135.468-.335l2.14-6.271h13.263l2.09 6.267a.493.493 0 0 0 .468.339h6.537a.495.495 0 0 0 .465-.665L149.425 7.39a.494.494 0 0 0-.465-.325h-5.022a.493.493 0 0 0-.465.325zm49.028 22.531l-14.636-22.63a.496.496 0 0 0-.416-.226h-5.736a.494.494 0 0 0-.495.494v36.336c0 .273.221.495.495.495h6.296a.495.495 0 0 0 .495-.495V21.481l14.637 22.682a.496.496 0 0 0 .416.227h5.736a.495.495 0 0 0 .495-.495V7.559a.495.495 0 0 0-.495-.494h-6.297a.495.495 0 0 0-.495.494v22.362zm77.534 1.415c0 4.299-2.569 6.867-6.5 6.867-3.932 0-6.448-2.569-6.448-6.867V7.56a.495.495 0 0 0-.495-.495h-6.297a.495.495 0 0 0-.495.494V31.6c0 7.915 6.081 13.105 13.735 13.105 7.653 0 13.734-5.19 13.734-13.106V7.56a.495.495 0 0 0-.495-.494h-6.244a.495.495 0 0 0-.495.494v23.777zm43.734-18.099l1.987-5.51a.495.495 0 0 0-.466-.663h-25.729a.495.495 0 0 0-.496.495v36.335c0 .274.222.495.496.495h25.729c.343 0 .582-.34.466-.662l-1.987-5.51a.495.495 0 0 0-.465-.328h-16.952V28.82h13.65a.496.496 0 0 0 .496-.496v-5.51a.496.496 0 0 0-.496-.495h-13.65v-8.755h16.952a.495.495 0 0 0 .465-.327zm33.389 24.653h-15.42V7.56a.495.495 0 0 0-.496-.496h-6.296a.495.495 0 0 0-.495.495v36.335c0 .274.222.495.495.495h24.212c.343 0 .582-.34.465-.663l-2-5.51a.494.494 0 0 0-.465-.327zM235.49 10.629c-2.465-2.464-5.977-3.564-9.856-3.564H210.83a.495.495 0 0 0-.486.591l1.094 5.51a.495.495 0 0 0 .486.399h13.028c2.516 0 4.194.786 5.452 2.306 1.363 1.678 1.573 4.037 1.573 9.699s-.21 8.335-1.573 10.013c-1.258 1.52-2.936 2.306-5.452 2.306h-5.504V18.467a.495.495 0 0 0-.495-.495h-6.297a.495.495 0 0 0-.495.495v25.428c0 .273.222.495.495.495h12.978c3.88 0 7.391-1.101 9.855-3.565 4.194-4.194 3.774-9.646 3.774-15.255 0-5.61.42-10.747-3.774-14.941z" fill="#fff"></path><path d="M102.9 59.86c0-2.9 1.587-4.486 4.487-4.486h5.953c2.809 0 4.366 1.587 4.366 4.487v2.107h-4.61v-1.924c0-.518-.244-.763-.763-.763h-4.06c-.519 0-.763.245-.763.763v2.198c0 .58.153.733.671.886l6.777 1.74c1.984.519 2.992 1.74 2.992 3.633v3.907c0 2.9-1.587 4.487-4.487 4.487h-6.38c-2.809 0-4.366-1.587-4.366-4.487v-1.923h4.61v1.74c0 .518.244.763.762.763h4.458c.519 0 .763-.245.763-.763v-2.656c0-.458-.244-.733-.733-.855l-6.96-1.801c-1.801-.458-2.717-1.74-2.717-3.846V59.86zm30.484-.335v5.678h4.915c.519 0 .763-.244.763-.763v-4.152c0-.519-.244-.763-.763-.763h-4.915zm0 9.708v7.54h-4.67V55.496h10.531c2.9 0 4.488 1.587 4.488 4.487v4.763c0 2.9-1.588 4.487-4.488 4.487h-5.861zm25.463 2.9c0 .519.244.763.763.763h4.457c.519 0 .763-.244.763-.763V60.136c0-.52-.244-.763-.763-.763h-4.457c-.519 0-.763.244-.763.763v11.997zm-.183 4.762c-2.9 0-4.487-1.587-4.487-4.487V59.86c0-2.9 1.587-4.487 4.487-4.487h6.35c2.899 0 4.487 1.587 4.487 4.487v12.547c0 2.9-1.588 4.487-4.487 4.487h-6.35zm26.463-17.431v5.342h4.915c.519 0 .763-.244.763-.763v-3.816c0-.519-.244-.763-.763-.763h-4.915zm5.403 17.31l-2.411-7.999h-2.992v7.998h-4.67V55.496h10.531c2.9 0 4.488 1.587 4.488 4.487v4.304c0 2.23-.886 3.663-2.656 4.243l2.747 8.243h-5.037zm29.764-17.218h-5.006v17.217h-4.671V59.556h-5.036v-4.06h14.713v4.06zm10.177.304c0-2.9 1.588-4.486 4.488-4.486h5.952c2.809 0 4.366 1.587 4.366 4.487v2.107h-4.61v-1.924c0-.518-.244-.763-.763-.763h-4.06c-.519 0-.763.245-.763.763v2.198c0 .58.153.733.671.886l6.778 1.74c1.984.519 2.991 1.74 2.991 3.633v3.907c0 2.9-1.587 4.487-4.487 4.487h-6.38c-2.809 0-4.366-1.587-4.366-4.487v-1.923h4.61v1.74c0 .518.244.763.763.763h4.457c.519 0 .763-.245.763-.763v-2.656c0-.458-.244-.733-.733-.855l-6.96-1.801c-1.801-.458-2.717-1.74-2.717-3.846V59.86zm30.485 7.938v5.037h5.25c.52 0 .764-.244.764-.763V68.56c0-.52-.244-.763-.764-.763h-5.25zm0-8.364v4.426h4.793c.519 0 .763-.244.763-.763v-2.9c0-.52-.244-.763-.763-.763h-4.793zm-4.67 17.339V55.496h10.378c2.9 0 4.488 1.588 4.488 4.488v2.44c0 1.742-.824 2.84-2.442 3.359 1.954.336 2.931 1.496 2.931 3.45v3.053c0 2.9-1.588 4.487-4.488 4.487h-10.867zm30.661-4.64c0 .519.244.763.763.763h4.457c.519 0 .763-.244.763-.763V60.136c0-.52-.244-.763-.763-.763h-4.457c-.519 0-.763.244-.763.763v11.997zm-.183 4.762c-2.9 0-4.488-1.587-4.488-4.487V59.86c0-2.9 1.588-4.487 4.488-4.487h6.35c2.899 0 4.487 1.587 4.487 4.487v12.547c0 2.9-1.588 4.487-4.487 4.487h-6.35zm26.301-4.762c0 .519.244.763.763.763h4.457c.519 0 .763-.244.763-.763V60.136c0-.52-.244-.763-.763-.763h-4.457c-.519 0-.763.244-.763.763v11.997zm-.183 4.762c-2.9 0-4.488-1.587-4.488-4.487V59.86c0-2.9 1.588-4.487 4.488-4.487h6.35c2.899 0 4.487 1.587 4.487 4.487v12.547c0 2.9-1.588 4.487-4.487 4.487h-6.35zm28.143-9.097h-1.679v8.975h-4.671V55.496h4.671v8.364h2.076l3.602-3.541c.335-.305.488-.763.488-1.374v-3.45h4.427v4.214c0 .946-.306 1.709-.886 2.259l-3.937 3.846 4.151 4.732c.488.549.733 1.25.733 2.106v4.12h-4.671v-3.235c0-.55-.153-1.008-.488-1.404l-3.816-4.335zM42.442 83.9c24.826-14.536 41.68-41.631 41.68-72.247a.694.694 0 0 0-.347-.603C73.496 5.149 61.443 1.263 48.788.26a.727.727 0 0 0-.632.284 76.634 76.634 0 0 0-8.469 13.976.248.248 0 0 0 .232.352 69.239 69.239 0 0 1 2.141-.033c9.445 0 18.446 1.89 26.65 5.312-2.407 18.774-12.328 35.196-26.65 46.156a69.7 69.7 0 0 1-8.194-7.37c-.166-.175-.46-.032-.422.206a76.18 76.18 0 0 0 8.394 24.59.44.44 0 0 0 .604.168z" fill="#1493FF"></path><path d="M27.554 51.254a69.2 69.2 0 0 1-4.57-7.39 44.612 44.612 0 0 1 4.27-1.76.704.704 0 0 0 .47-.618 81.412 81.412 0 0 1 2.47-15.208.239.239 0 0 0-.279-.294 58.977 58.977 0 0 0-12.483 4.088 68.869 68.869 0 0 1-2.022-9.921 68.82 68.82 0 0 1 18.136-4.793.651.651 0 0 0 .518-.39c2.209-5.173 4.826-9.8 8.11-14.61A.229.229 0 0 0 41.986 0C26.408.072 12.671 4.067.37 11.036a.737.737 0 0 0-.37.642C0 38.057 13.149 62.97 33.248 78.254c.196.149.461-.057.368-.284a81.23 81.23 0 0 1-5.95-26.394.616.616 0 0 0-.112-.322z" fill="#1493FF"></path></g></svg>